<svg width="77" height="77" viewBox="0 0 77 77" fill="none" xmlns="http://www.w3.org/2000/svg">
<mask id="mask0_69_1292" style="mask-type:luminance" maskUnits="userSpaceOnUse" x="0" y="0" width="77" height="77">
<path d="M77 0H0V77H77V0Z" fill="white"/>
</mask>
<g mask="url(#mask0_69_1292)">
<path d="M38.5 77C17.2376 77 0 59.7625 0 38.5C0 17.2377 17.2376 0 38.5 0C59.7625 0 77 17.2377 77 38.5C77 59.7625 59.7665 77 38.5 77Z" fill="#2461ED"/>
<path fill-rule="evenodd" clip-rule="evenodd" d="M43.6222 37.6407C36.6467 33.8714 28.1596 28.9834 21.7719 24.9992C19.8873 23.6415 20.8397 20.7598 23.1216 20.7598H54.7275C56.4904 20.7598 57.67 22.7255 56.7863 24.213C54.6626 27.881 51.562 32.5379 48.9718 36.2303C47.5818 38.2122 45.3162 38.5527 43.6222 37.6407ZM33.4488 38.8648C40.1932 42.4601 49.6451 47.9275 56.3606 52.0617C58.436 53.3425 57.6091 56.4144 55.1855 56.4144C51.2194 56.4144 44.7743 56.4156 38.3632 56.4165C32.0181 56.4177 25.7057 56.4185 21.8612 56.4185C19.9238 56.4185 18.9308 54.4084 19.7536 53.0059C22.534 48.2682 25.6589 43.4853 28.2569 39.9146C29.412 38.3217 31.7628 37.9651 33.4488 38.8648Z" fill="white"/>
</g>
</svg>
