<svg width="78" height="73" viewBox="0 0 78 73" fill="none" xmlns="http://www.w3.org/2000/svg">
<path d="M58.3583 7.63653C58.3583 7.63653 61.5601 7.77319 64.879 8.14413C57.3821 2.24814 50.2757 0.530102 44.5164 0.530102C36.5705 0.530102 31.2016 3.79047 30.8893 3.9857L33.3882 0.0225006C33.3882 0.0225006 23.3924 -0.934132 19.8782 9.62789C18.9801 7.38273 18.1406 4.12236 18.1406 4.12236C18.1406 4.12236 12.9475 8.67125 15.3879 16.2267C9.43332 14.0596 0.921235 11.0336 0.608865 10.975C0.159833 10.9164 0.0231708 11.1116 0.0231708 11.1116C0.0231708 11.1116 -0.113491 11.3069 0.276972 11.6192C0.979805 12.2049 14.4312 22.1227 17.3597 24.036C16.7155 26.3397 16.7155 27.433 17.3597 28.5263C18.2578 29.9905 18.3163 30.7715 18.1992 31.8647C18.0625 32.958 16.9107 42.3682 16.6569 43.5201C16.4031 44.6719 13.7089 48.7718 13.8456 49.9822C13.9822 51.1927 15.6417 56.3858 17.1059 56.952C18.1992 57.3424 20.8739 58.1624 22.67 58.1624C23.3143 58.1624 23.8804 58.0258 24.1342 57.772C25.2275 56.8153 25.5399 56.6201 26.3013 56.6201H26.4965C26.8089 56.6201 27.1994 56.6787 27.6484 56.6787C28.6636 56.6787 30.0107 56.4834 30.9869 55.5854C32.3925 54.1797 34.8329 52.2469 35.5943 51.3684C36.551 50.1579 37.0586 48.4789 36.8048 46.8195C36.6095 45.2771 37.449 43.93 38.4057 42.6025C39.6161 41.0016 41.8613 38.1122 41.8613 38.1122C46.2735 41.4506 49.0262 46.5071 49.0262 52.1298C49.0262 62.1256 40.3189 70.1887 29.5617 70.1887C27.9022 70.1887 26.3013 69.9934 24.7004 69.603C29.6202 71.3405 33.7982 71.9067 37.1757 71.9067C44.4188 71.9067 48.2453 69.2906 48.2453 69.2906C48.2453 69.2906 46.8982 71.0282 44.7312 73H44.7897C56.7574 71.3405 62.5948 61.4813 62.5948 61.4813C62.5948 61.4813 62.1458 64.6831 61.5796 66.8502C77.5105 54.8825 74.8358 39.9083 74.7577 39.3812C74.8944 39.5764 76.4953 41.4897 77.3153 42.5244C79.9314 16.1486 58.3583 7.63653 58.3583 7.63653Z" fill="#1B314F"/>
<path d="M57.6 50.5295C57.7367 50.0219 58.3028 49.69 58.9471 49.3777C59.3961 49.1239 59.9623 48.792 60.0404 48.6163C60.2942 47.152 60.4309 45.6683 60.4309 44.204C60.4309 43.8917 59.9233 43.3645 59.4742 42.9936C58.9666 42.486 58.459 41.9784 58.3809 41.4513C57.9319 37.2928 56.3896 33.2516 53.8906 29.9326C54.0858 32.2363 54.0273 35.0477 53.383 38.3276C57.9905 46.4492 55.1206 56.6988 49.166 62.9072C53.1683 59.8225 56.1748 55.4689 57.6 50.5295Z" fill="#BABDFF"/>
<path d="M34.5414 46.8788C33.8385 44.1261 31.0858 42.6618 30.1877 42.7204C29.1725 42.8571 27.7473 43.0328 27.2983 43.3647C28.1378 42.0762 29.2896 41.4514 30.4415 41.1195C31.3981 38.3668 33.4481 32.7246 33.8971 32.3536C34.1509 32.1584 34.7952 31.9632 35.8885 31.6508C36.5327 31.5141 37.4308 31.2603 37.5479 31.1432C37.8017 30.7527 40.3593 24.6225 40.5545 24.1734C40.4959 23.7244 39.2074 20.464 37.8603 17.3208C34.5999 19.6831 31.0663 19.0584 31.0663 19.0584C31.0663 19.0584 33.5652 18.3555 36.1227 14.5681C38.6217 10.8001 36.2594 5.60693 36.2594 5.60693C36.2594 5.60693 27.4935 18.7851 26.4002 19.0584C25.3069 19.3122 24.5455 17.9651 24.5455 17.9651C24.5455 17.9651 22.2418 23.9782 21.5975 26.1648C20.9533 28.3319 21.7342 30.3818 22.3004 31.4165C22.9446 32.4317 24.2917 35.0088 22.437 37.6249C22.6908 36.473 21.539 34.6769 20.6995 33.5836C20.3871 36.3949 19.5476 43.1304 19.2938 44.2042C19.1571 44.9656 18.7081 45.8051 17.9467 47.2693C17.5562 48.0307 16.7948 49.3778 16.5996 50.0221C16.8534 51.1739 17.81 53.9267 18.4543 54.7662C19.3524 55.0786 20.6214 55.4104 21.7147 55.6057C22.2223 55.6057 22.8665 55.3519 23.7646 54.5124C25.4241 52.9701 26.5174 52.1501 26.8297 50.4711C27.1421 48.8702 27.025 46.3712 27.7864 45.6684C28.4892 44.9656 30.0315 44.6532 31.242 44.9656C30.2853 44.9656 29.192 45.4146 29.192 45.4146C29.192 45.4146 31.0467 45.1022 31.7496 46.4298C32.4524 47.7769 31.8862 48.5383 30.7344 49.3192C29.7777 49.9635 26.9664 52.9115 25.9902 54.1805H26.5759H26.8297H27.2202H27.923C28.6844 54.1805 29.2116 54.0438 29.4654 53.79C30.1096 53.1458 30.9296 52.4429 31.7105 51.7401C32.4719 51.0373 33.5652 50.0806 33.819 49.7487C34.3266 48.9873 34.6585 48.0112 34.5218 46.996V46.8788H34.5414ZM31.3396 15.7785L35.6347 9.43347C35.6347 9.43347 36.2204 11.991 34.7366 13.7286C32.8819 15.8371 31.281 15.7785 31.3396 15.7785ZM19.5086 51.5644C18.6691 51.623 18.3567 50.6078 18.5519 50.0221C18.7472 49.5145 20.8557 45.8051 20.8557 45.8051L20.3481 48.3626C20.3481 48.3626 21.3633 48.2259 21.3633 49.3778C21.3633 50.2759 20.3285 51.4863 19.5086 51.5644ZM26.2245 32.6074C25.8341 34.0717 22.5737 33.4469 23.7841 28.7614C23.7841 28.7614 24.3698 31.0065 24.936 30.8113C25.5217 30.6161 32.0424 20.3859 32.0424 20.3859C32.0424 20.3859 31.2029 23.0801 30.6367 24.4272C32.8819 24.8763 33.5262 27.4924 32.2962 28.9176C31.0858 30.2451 28.0206 32.1584 26.2245 32.6074Z" fill="#BABDFF"/>
<path d="M40.8866 13.7871C40.4375 14.4899 39.9885 15.1342 39.5395 15.6418C40.4961 18.0041 42.9951 24.2125 42.9951 24.5444C42.9951 24.9348 41.7846 28.0585 41.648 28.1952C41.5113 28.2538 40.0471 28.3904 39.4809 28.3904C38.8367 29.9327 38.1924 31.397 38.0752 31.5922C37.88 31.846 37.3138 32.0412 36.0839 32.3536C35.4396 32.5488 34.483 32.8026 34.3463 32.9393C34.034 33.3298 32.2964 37.8591 31.1445 41.0609C32.6869 40.8071 34.034 41.1195 34.3463 41.2562C36.8453 36.512 38.8366 33.9545 39.3442 33.9545C39.8519 33.8959 45.9431 34.794 48.3054 29.0932C50.6091 23.4511 47.2902 18.6679 47.1535 18.4727C47.2902 18.5312 52.4052 20.9131 53.6742 28.5856C56.5637 32.2365 58.4184 36.6487 58.926 41.3343C58.926 41.6466 59.4336 42.0957 59.7655 42.4861C60.3511 43.0718 60.9173 43.638 60.9173 44.2237C60.9173 45.766 60.7807 47.2888 60.5269 48.7726C60.3902 49.2802 59.7655 49.6706 59.1212 49.983C58.7307 50.2368 58.1646 50.5687 58.106 50.7444C56.7003 55.8009 53.4985 60.2912 49.3401 63.493C58.1646 59.276 64.2558 50.2368 64.2558 39.87C64.2558 26.3405 54.0061 15.1928 40.8866 13.7871Z" fill="#BABDFF"/>
<path d="M30.8316 47.3865C30.8316 46.4882 29.6208 46.2929 29.0936 46.4296C28.5858 46.5663 28.4491 47.3865 28.3905 47.8356C28.332 48.2848 28.3905 49.6908 27.8047 50.5305C27.9414 50.3938 28.8202 49.437 29.2693 48.9878C29.9333 48.4215 30.8316 48.2262 30.8316 47.3865Z" fill="#BABDFF"/>
<path d="M20.4631 21.9858C20.9121 21.1464 20.5217 20.5803 20.1508 20.2484C20.0922 20.1898 20.0141 20.1118 20.0141 20.1118C19.2528 19.7213 14.4506 17.9449 9.70703 16.2661C13.865 19.0186 18.472 21.7125 19.2528 22.0834C19.8189 22.3567 20.2093 22.4348 20.4631 21.9858Z" fill="#BABDFF"/>
<path d="M38.6015 19.0591C38.3673 18.493 38.1135 17.9074 37.8597 17.3218C34.6778 19.6253 31.2616 19.0787 31.0859 19.0591C31.2616 19.0787 34.6583 20.1523 38.6015 19.0591Z" fill="#7275B7"/>
<path d="M45.2802 14.647C43.8552 14.2371 42.3911 13.9443 40.888 13.7881C40.439 14.4908 39.99 15.135 39.541 15.6426C39.8143 16.3063 40.2047 17.2628 40.6147 18.317C42.1959 17.5556 43.8161 16.4039 45.2802 14.647Z" fill="#7275B7"/>
<path d="M34.5409 46.8784C33.8381 44.126 31.0857 42.6619 30.1877 42.7205C29.1726 42.8571 27.7476 43.0328 27.2986 43.3647C28.138 42.0763 29.2897 41.4516 30.4415 41.1197C30.7733 40.1827 31.2223 38.9139 31.6908 37.6255C30.5977 38.2111 26.7325 40.2608 26.4006 40.4756C26.0102 40.7293 24.6633 43.4232 23.6482 46.2342C23.0625 44.4383 21.7937 43.3451 21.7351 43.2866C21.7937 43.5989 23.1406 48.9281 22.6916 50.5289C22.2427 52.1882 19.4316 53.6718 19.4316 53.6718L23.6677 54.6088C23.7067 54.5697 23.7458 54.5307 23.7848 54.4916C25.4441 52.9495 26.5373 52.1296 26.8496 50.4508C27.162 48.8501 27.0448 46.3514 27.8061 45.6486C28.5089 44.9459 30.0511 44.6335 31.2614 44.9459C30.91 44.9459 30.5586 45.0044 30.2268 45.0825C31.3199 45.102 32.7645 45.512 32.7254 47.6983C32.7254 49.3576 30.8709 49.4943 29.0165 51.0364C28.6456 51.3488 28.2356 51.7001 27.8257 52.0905C27.0839 52.8909 26.4006 53.6718 26.0102 54.1793H27.9233C28.6846 54.1793 29.2117 54.0427 29.4654 53.7889C30.1096 53.1447 30.9295 52.4419 31.7103 51.7392C32.4717 51.0364 33.5648 50.0799 33.8186 49.748C34.3262 48.9867 34.658 48.0107 34.5214 46.9956V46.8784H34.5409Z" fill="#7275B7"/>
<path d="M39.8521 32.2955C37.6069 32.2955 34.6003 33.7598 34.6003 33.7598L31.6523 40.9833C32.9604 40.8662 34.0537 41.12 34.3465 41.2371C36.8455 36.493 38.8369 33.9355 39.3445 33.9355C39.8521 33.8769 45.9433 34.775 48.3056 29.0742C50.6093 23.432 47.2904 18.6488 47.1537 18.4536C49.8479 27.2976 43.8934 32.2174 39.8521 32.2955Z" fill="#7275B7"/>
<path d="M57.6 50.53C57.7367 50.0224 58.3028 49.6905 58.9471 49.3782C59.3961 49.1244 59.9623 48.7925 60.0404 48.6168C60.2942 47.1525 60.4309 45.6688 60.4309 44.2045C60.4309 43.8922 59.9233 43.365 59.4742 42.9941C58.9666 42.4865 58.459 41.9594 58.3809 41.4518C57.9319 37.2933 56.3896 33.252 53.8906 29.9331C54.0858 32.2368 54.0273 35.0482 53.383 38.3085C57.9905 46.4302 55.1206 56.6798 49.166 62.8882C53.1683 59.823 56.1748 55.4694 57.6 50.53Z" fill="#7275B7"/>
<path d="M63.5323 38.5039C61.2481 25.5796 48.1676 18.9222 47.1719 18.4731C47.5819 18.6684 52.2284 21.0307 53.595 28.1176C56.7773 31.827 58.7686 36.4735 59.3153 41.3738C59.3153 41.6862 59.7643 42.1352 60.2133 42.5256C60.799 43.1113 61.3652 43.6775 61.3652 44.2632C61.3652 45.8055 61.2285 47.3283 60.9747 48.8121C60.8381 49.3197 60.2133 49.6516 59.5691 50.0225C59.1786 50.2763 58.6124 50.6082 58.5539 50.7839C57.2458 55.4109 54.5126 59.5303 50.8813 62.654C50.5884 62.9078 50.2956 63.1421 49.9832 63.3959C56.8749 59.4913 61.7361 53.5562 63.3175 46.8012C63.9227 44.1265 64.0399 41.3347 63.5323 38.5039Z" fill="#7275B7"/>
<path d="M26.7324 31.3959L30.0705 25.6958C30.0705 25.6958 31.9836 26.6523 31.027 28.1945C29.7972 29.9904 26.7324 31.3959 26.7324 31.3959Z" fill="#387CFF"/>
<path d="M64.625 30.6938C64.9373 31.2795 72.8247 45.8048 64.5664 61.6771C65.8549 60.3885 66.9287 59.061 67.9049 57.7724C73.4104 50.0998 72.649 39.5378 66.304 32.49C65.7768 31.9043 65.2107 31.26 64.625 30.6938Z" fill="#387CFF"/>
<path d="M75.5774 37.3516C75.4407 29.1519 72.688 22.1236 67.3777 16.4814C67.3191 16.4228 67.3191 16.4228 67.241 16.3447C62.575 11.4249 55.7223 9.10166 48.9283 10.0778C46.3708 10.3902 43.8132 10.9173 41.8219 11.5421C41.5095 11.6006 41.1776 11.6787 40.8652 11.7959H41.0019C41.5095 11.7373 50.8611 11.2883 59.5684 17.0476C68.6076 23.0021 72.688 29.601 75.5774 37.3516Z" fill="#387CFF"/>
<path d="M57.5176 5.66515C53.3006 3.55665 48.8688 2.46335 44.4566 2.40479C42.7971 2.40479 41.2548 2.54145 39.8492 2.79525C34.8512 3.69331 30.7514 7.28557 29.3457 12.0687C29.3457 12.0687 30.3609 10.4678 32.8013 8.80838C33.6994 7.59794 35.105 5.66515 36.4521 4.06425C36.8426 4.90375 37.2916 5.91895 37.4088 6.42655C41.8405 4.76708 47.9903 3.86902 57.5176 5.66515Z" fill="#387CFF"/>
<path d="M17.3788 8.47705C17.2421 8.9846 14.763 17.691 22.2395 17.9447C17.9058 15.3289 17.3788 8.53561 17.3788 8.47705Z" fill="#387CFF"/>
<path d="M29.6217 2.26855C29.1727 2.46376 19.5098 5.60665 25.0147 13.9812C25.0147 13.9812 23.863 5.72377 29.6217 2.26855Z" fill="#387CFF"/>
</svg>
