<svg width="64" height="64" viewBox="0 0 64 64" fill="none" xmlns="http://www.w3.org/2000/svg">
<path fill-rule="evenodd" clip-rule="evenodd" d="M14.0351 0C6.28372 0 0 6.28373 0 14.035V49.965C0 57.7163 6.28372 64 14.0351 64H49.9649C57.7163 64 64 57.7163 64 49.965V14.035C64 6.28373 57.7163 0 49.9649 0H14.0351ZM44.2627 31.9198C46.2723 31.3893 48.0603 29.8623 48.0603 26.7922C48.0603 21.6807 43.788 20.4914 38.3133 20.4914H16.5092V43.5089H25.6866V35.6971H36.5728C38.25 35.6971 39.2311 36.3721 39.2311 38.0438V43.5089H48.4084V37.7545C48.4084 34.6202 46.6679 32.643 44.2627 31.9198ZM38.0973 26.9222H25.6907V30.0605H38.0973C38.1159 30.0612 38.1344 30.0605 38.1531 30.0605C39.0063 30.0605 39.6979 29.358 39.6979 28.4914C39.6979 27.6247 39.0063 26.9222 38.1531 26.9222C38.1344 26.9222 38.1159 26.9215 38.0973 26.9222Z" fill="#AAAFFF"/>
</svg>
