<svg width="73" height="73" viewBox="0 0 73 73" fill="none" xmlns="http://www.w3.org/2000/svg">
<path d="M62.1424 10.7142C55.2854 3.8095 46.1426 0 36.4283 0C26.7141 0 17.5713 3.8095 10.7142 10.7142C3.8095 17.6189 0 26.8093 0 36.5712C0 46.333 3.8095 55.5234 10.6666 62.4282C13.4761 65.2377 16.6189 67.5234 20.0475 69.2376C19.5713 67.6186 18.9046 65.9043 18.1904 64.0472C16.1427 58.6187 13.5237 51.8568 13.5237 43.4283C13.5237 34.5712 14.619 27.0951 16.7142 21.857C17.7142 19.3808 18.9523 17.6665 21.6189 17.6665C23.1903 17.6665 24.3332 18.0475 25.2855 18.9523C26.4284 20.0475 27.1427 21.857 27.476 24.476C28.1903 30.6665 29.6665 35.7617 31.1903 41.1902C33.6664 49.8568 36.2379 58.8091 35.7141 72.7138C35.8569 72.7138 35.9521 72.7138 36.095 72.7138H36.476C36.6664 72.7138 36.8569 72.7138 37.0474 72.7138C36.5236 58.8091 39.095 49.8568 41.5712 41.1902C43.095 35.8093 44.5711 30.6665 45.2854 24.476C45.6188 21.857 46.2854 20.0475 47.4759 18.9523C48.3806 18.0951 49.5235 17.6665 51.1425 17.6665C53.8568 17.6665 55.0473 19.3332 56.0472 21.857C58.1425 27.0951 59.2377 34.5712 59.2377 43.4283C59.2377 51.8568 56.6663 58.6187 54.5711 64.0472C53.8568 65.9043 53.1901 67.6662 52.7139 69.2376C56.1425 67.5234 59.3329 65.2377 62.0948 62.4282C69.0472 55.5234 72.8567 46.333 72.8567 36.5712C72.8567 26.8093 69.0472 17.6189 62.1424 10.7142ZM42.0473 18.7142C38.714 19.4761 37.4283 20.7141 36.6664 24.1903H35.9998C35.2379 20.6665 34.0474 19.4761 30.6188 18.7142V18.1904C34.095 17.4285 35.2855 16.1904 35.9998 12.7142H36.6664C37.4283 16.238 38.714 17.4761 42.0473 18.1904V18.7142Z" fill="#AAAFFF"/>
</svg>
