<svg width="71" height="64" viewBox="0 0 71 64" fill="none" xmlns="http://www.w3.org/2000/svg">
<path d="M70.0733 50.1716L58.4446 62.6403C58.1931 62.9111 57.8885 63.1273 57.5498 63.2752C57.2111 63.4231 56.8455 63.4997 56.4759 63.5H1.35111C1.08819 63.4999 0.831025 63.4231 0.61109 63.279C0.391162 63.1349 0.218017 62.9299 0.112854 62.6889C0.00769013 62.4479 -0.0249254 62.1815 0.0190038 61.9223C0.062933 61.6631 0.181491 61.4223 0.360174 61.2294L11.9758 48.7607C12.2273 48.4899 12.5319 48.2737 12.8706 48.1258C13.2093 47.978 13.5749 47.9014 13.9445 47.901H69.0693C69.3344 47.8955 69.5956 47.9687 69.8194 48.1112C70.0432 48.2537 70.2203 48.4593 70.3273 48.7019C70.4349 48.9447 70.4677 49.2138 70.4225 49.4753C70.3772 49.7368 70.2558 49.9791 70.0733 50.1716ZM58.4446 25.057C58.1922 24.7874 57.8874 24.5722 57.5489 24.4243C57.2104 24.2766 56.8452 24.1993 56.4759 24.1974H1.35111C1.08819 24.1975 0.831025 24.2743 0.61109 24.4184C0.391162 24.5625 0.218017 24.7676 0.112854 25.0085C0.00769013 25.2495 -0.0249254 25.5159 0.0190038 25.7751C0.062933 26.0343 0.181491 26.2752 0.360174 26.468L11.9758 38.9433C12.2282 39.2129 12.533 39.4281 12.8715 39.576C13.21 39.7238 13.5752 39.801 13.9445 39.8029H69.0693C69.3318 39.8015 69.5877 39.7238 69.8069 39.5793C70.0261 39.4347 70.198 39.2295 70.3024 38.9888C70.4067 38.7481 70.4389 38.4822 70.3942 38.2236C70.3503 37.965 70.2322 37.7248 70.0537 37.5324L58.4446 25.057ZM1.35111 16.0993H56.4759C56.8455 16.0989 57.2111 16.0223 57.5498 15.8744C57.8885 15.7266 58.1931 15.5104 58.4446 15.2396L70.0733 2.7709C70.2558 2.57831 70.3772 2.33601 70.4225 2.07451C70.4677 1.813 70.4349 1.54396 70.3273 1.30124C70.2203 1.05852 70.0432 0.852967 69.8194 0.710448C69.5956 0.567928 69.3344 0.494807 69.0693 0.500287H13.9445C13.5749 0.500676 13.2093 0.577211 12.8706 0.72512C12.5319 0.873028 12.2273 1.08914 11.9758 1.35997L0.360174 13.8286C0.181491 14.0215 0.062933 14.2624 0.0190038 14.5216C-0.0249254 14.7808 0.00769013 15.0472 0.112854 15.2881C0.218017 15.5291 0.391162 15.7342 0.61109 15.8782C0.831025 16.0223 1.08819 16.0991 1.35111 16.0993Z" fill="#AAAFFF"/>
</svg>
