<svg width="49" height="78" viewBox="0 0 49 78" fill="none" xmlns="http://www.w3.org/2000/svg">
<path d="M39.0395 13.3327H48.0783V0.5C48.0783 0.5 38.5787 0.5 38.3483 0.510132C17.2876 0.893105 0.298828 17.977 0.298828 39C0.298828 60.25 17.6587 77.4797 39.0395 77.5H48.0783V64.6653H39.0395C35.117 64.6503 31.2493 63.7486 27.7294 62.0283C24.2095 60.3081 21.1295 57.8145 18.7229 54.7362C16.3162 51.658 14.6458 48.0759 13.8383 44.2613C13.0308 40.4466 13.1073 36.4993 14.0619 32.7184C15.5188 38.1972 18.7588 43.0431 23.2768 46.5006C27.7949 49.9581 33.3372 51.8329 39.0395 51.8327H48.0783V39H39.0395C31.9581 39 26.1939 33.2047 26.1939 26.1673C26.1939 19.13 31.9581 13.3327 39.0395 13.3327Z" fill="#AAAFFF"/>
</svg>
