<svg width="73" height="73" viewBox="0 0 73 73" fill="none" xmlns="http://www.w3.org/2000/svg">
<path fill-rule="evenodd" clip-rule="evenodd" d="M73 38.0209C73 54.5101 73 62.7549 67.8775 67.8772C62.7546 73 54.5101 73 38.0207 73H34.979C18.4899 73 10.2451 73 5.12255 67.8772C0 62.7549 0 54.5101 0 38.0209V34.9791C0 18.4899 0 10.2451 5.12255 5.12283C10.2451 0 18.4899 0 34.979 0H38.0207C54.5101 0 62.7546 0 67.8775 5.12283C73 10.2451 73 18.4899 73 34.9791V38.0209Z" fill="#AAAFFF"/>
<path fill-rule="evenodd" clip-rule="evenodd" d="M9.79001 26.3497C8.73091 27.4088 8.29212 28.9388 8.62891 30.3982L14.3884 55.356C14.7619 56.9746 16.0258 58.2384 17.6444 58.612L42.6021 64.3714C44.0615 64.7082 45.5915 64.2694 46.6506 63.2103L63.2118 46.6492C64.2709 45.5901 64.7097 44.0601 64.3729 42.6006L58.6134 17.6429C58.2399 16.0243 56.976 14.7604 55.3574 14.3869L30.3997 8.62744C28.9403 8.29065 27.4103 8.72945 26.3512 9.78855L9.79001 26.3497Z" fill="#0E19D7"/>
<path d="M47.65 28.7661C48.4982 29.6143 48.4982 30.9895 47.65 31.8378L34.6178 44.87C33.7695 45.7182 32.3943 45.7182 31.5461 44.87L26.1127 39.4367C25.2645 38.5884 25.2645 37.2132 26.1127 36.3649C26.961 35.5167 28.3362 35.5167 29.1845 36.3649L33.0819 40.2624L44.5783 28.7661C45.4265 27.9178 46.8017 27.9178 47.65 28.7661Z" fill="#AAAFFF"/>
</svg>
