<svg width="19" height="34" viewBox="0 0 19 34" fill="none" xmlns="http://www.w3.org/2000/svg">
<rect width="19" height="34" fill="#BABABA"/>
<g clip-path="url(#clip0_0_1)">
<rect width="1440" height="8466" transform="translate(-103 -63)" fill="#EDEDED"/>
<g clip-path="url(#clip1_0_1)">
<rect width="1440" height="1024" transform="translate(-103 -63)" fill="#EDEDED"/>
<g clip-path="url(#clip2_0_1)">
<path d="M26.7687 17.029C26.7687 33.5217 13.4064 46.8841 -3.08633 46.8841C-19.5791 46.8841 -32.9414 33.5217 -32.9414 17.029C-32.9414 0.536238 -19.5791 -12.8261 -3.08633 -12.8261C13.4064 -12.8261 26.7687 0.536238 26.7687 17.029Z" fill="#191919"/>
<path d="M17.8119 11.7536C17.3772 9.11594 16.5366 6.91304 15.3772 5.08696C15.0293 4.56522 14.6815 4.07246 14.3047 3.63768C13.1743 2.36232 11.8409 1.46377 10.3047 1C9.40614 0.710145 8.44961 0.565216 7.40614 0.565216C7.34816 0.565216 7.29019 0.565216 7.26121 0.565216H0.304688V33.4927H7.72498C8.65251 33.4927 9.52208 33.3478 10.3627 33.058C11.0003 32.8261 11.609 32.5072 12.2177 32.1014C13.5801 31.1739 14.6815 29.9855 15.5801 28.5362C15.8119 28.1594 16.0438 27.7536 16.2467 27.3478C17.58 24.6522 18.2467 21.2609 18.2467 17.1449C18.2177 15.1449 18.0728 13.3768 17.8119 11.7536ZM6.65251 26.2174H5.58005V7.81159H6.85541C7.05831 7.81159 7.26121 7.81159 7.46411 7.84058C9.05831 7.98551 10.2757 8.65217 11.0873 9.89855C12.1598 11.5217 12.6815 13.8985 12.6815 17.1159C12.6815 20.0145 12.1598 22.2754 11.1163 23.8696C10.3916 25 9.40614 25.7536 8.15976 26.0435C7.69599 26.1594 7.20324 26.2174 6.65251 26.2174Z" fill="white"/>
</g>
</g>
</g>
<defs>
<clipPath id="clip0_0_1">
<rect width="1440" height="8466" fill="white" transform="translate(-103 -63)"/>
</clipPath>
<clipPath id="clip1_0_1">
<rect width="1440" height="1024" fill="white" transform="translate(-103 -63)"/>
</clipPath>
<clipPath id="clip2_0_1">
<rect width="60" height="60" fill="white" transform="translate(-33 -13)"/>
</clipPath>
</defs>
</svg>
