<svg width="7" height="34" viewBox="0 0 7 34" fill="none" xmlns="http://www.w3.org/2000/svg">
<rect width="7" height="34" fill="#BABABA"/>
<g clip-path="url(#clip0_0_1)">
<rect width="1440" height="8466" transform="translate(-81 -63)" fill="#EDEDED"/>
<g clip-path="url(#clip1_0_1)">
<rect width="1440" height="1024" transform="translate(-81 -63)" fill="#EDEDED"/>
<g clip-path="url(#clip2_0_1)">
<path d="M48.7687 17.029C48.7687 33.5217 35.4064 46.8841 18.9137 46.8841C2.42091 46.8841 -10.9414 33.5217 -10.9414 17.029C-10.9414 0.536238 2.42091 -12.8261 18.9137 -12.8261C35.4064 -12.8261 48.7687 0.536238 48.7687 17.029Z" fill="#191919"/>
<path d="M6.68039 11.7536C6.53547 9.11594 6.24561 6.91304 5.83981 5.08696C5.72387 4.56522 5.60793 4.07246 5.463 3.63768C5.05721 2.36232 4.59344 1.46377 4.0717 1C3.75286 0.710145 3.43402 0.565216 3.05721 0.565216C3.02822 0.565216 3.02822 0.565216 2.99923 0.565216H0.564453V33.4927H3.17315C3.49199 33.4927 3.81083 33.3478 4.10068 33.058C4.33257 32.8261 4.53547 32.5072 4.73837 32.1014C5.20213 31.1739 5.60793 29.9855 5.92677 28.5362C6.01373 28.1594 6.10068 27.7536 6.15865 27.3478C6.62242 24.6522 6.85431 21.2609 6.85431 17.1449C6.82532 15.1449 6.76735 13.3768 6.68039 11.7536ZM2.76735 26.2174H2.39054V7.81159H2.85431C2.94126 7.81159 2.99924 7.81159 3.05721 7.84058C3.60793 7.98551 4.04271 8.65217 4.33257 9.89855C4.70938 11.5217 4.88329 13.8985 4.88329 17.1159C4.88329 20.0145 4.70938 22.2754 4.33257 23.8696C4.0717 25 3.72387 25.7536 3.28909 26.0435C3.14416 26.1594 2.97025 26.2174 2.76735 26.2174Z" fill="white"/>
</g>
</g>
</g>
<defs>
<clipPath id="clip0_0_1">
<rect width="1440" height="8466" fill="white" transform="translate(-81 -63)"/>
</clipPath>
<clipPath id="clip1_0_1">
<rect width="1440" height="1024" fill="white" transform="translate(-81 -63)"/>
</clipPath>
<clipPath id="clip2_0_1">
<rect width="60" height="60" fill="white" transform="translate(-11 -13)"/>
</clipPath>
</defs>
</svg>
