<svg width="14" height="34" viewBox="0 0 14 34" fill="none" xmlns="http://www.w3.org/2000/svg">
<rect width="14" height="34" fill="#BABABA"/>
<g clip-path="url(#clip0_0_1)">
<rect width="1440" height="8466" transform="translate(-89 -63)" fill="#EDEDED"/>
<g clip-path="url(#clip1_0_1)">
<rect width="1440" height="1024" transform="translate(-89 -63)" fill="#EDEDED"/>
<g clip-path="url(#clip2_0_1)">
<path d="M40.7687 17.029C40.7687 33.5217 27.4064 46.8841 10.9137 46.8841C-5.57909 46.8841 -18.9414 33.5217 -18.9414 17.029C-18.9414 0.536238 -5.57909 -12.8261 10.9137 -12.8261C27.4064 -12.8261 40.7687 0.536238 40.7687 17.029Z" fill="#191919"/>
<path d="M12.8565 11.7536C12.5376 9.11594 11.9869 6.91304 11.1753 5.08696C10.9434 4.56522 10.6826 4.07246 10.4217 3.63768C9.6391 2.36232 8.74055 1.46377 7.66808 1C7.05939 0.710145 6.39272 0.565216 5.66808 0.565216C5.6391 0.565216 5.61011 0.565216 5.55214 0.565216H0.769531V33.4927H5.87098C6.50866 33.4927 7.11736 33.3478 7.66808 33.058C8.10287 32.8261 8.53765 32.5072 8.94345 32.1014C9.87098 31.1739 10.6536 29.9855 11.2623 28.5362C11.4362 28.1594 11.5811 27.7536 11.7261 27.3478C12.6536 24.6522 13.1174 21.2609 13.1174 17.1449C13.1463 15.1449 13.0304 13.3768 12.8565 11.7536ZM5.17533 26.2174H4.42171V7.81159H5.32026C5.46518 7.81159 5.61011 7.81159 5.75504 7.84058C6.85649 7.98551 7.69707 8.65217 8.24779 9.89855C8.97243 11.5217 9.34924 13.8985 9.34924 17.1159C9.34924 20.0145 9.00142 22.2754 8.27678 23.8696C7.78402 25 7.08837 25.7536 6.24779 26.0435C5.89997 26.1594 5.55214 26.2174 5.17533 26.2174Z" fill="white"/>
</g>
</g>
</g>
<defs>
<clipPath id="clip0_0_1">
<rect width="1440" height="8466" fill="white" transform="translate(-89 -63)"/>
</clipPath>
<clipPath id="clip1_0_1">
<rect width="1440" height="1024" fill="white" transform="translate(-89 -63)"/>
</clipPath>
<clipPath id="clip2_0_1">
<rect width="60" height="60" fill="white" transform="translate(-19 -13)"/>
</clipPath>
</defs>
</svg>
