<svg width="37" height="37" viewBox="0 0 37 37" fill="none" xmlns="http://www.w3.org/2000/svg">
<path d="M8.57026 20.89L18.4986 30.5L28.4269 20.89C28.5441 20.8032 28.6407 20.6929 28.7102 20.5667C28.7797 20.4404 28.8206 20.3011 28.8299 20.1581C28.8393 20.0151 28.817 19.8719 28.7645 19.738C28.7121 19.6042 28.6306 19.4828 28.5258 19.3823C28.4209 19.2817 28.2951 19.2042 28.1568 19.1551C28.0185 19.1059 27.871 19.0863 27.7242 19.0975C27.5774 19.1086 27.4348 19.1503 27.306 19.2198C27.1772 19.2892 27.0653 19.3848 26.9778 19.5L19.5264 26.69L19.5264 7.56C19.5264 7.29478 19.4181 7.04043 19.2253 6.85289C19.0326 6.66536 18.7712 6.56 18.4986 6.56C18.226 6.56 17.9646 6.66536 17.7718 6.85289C17.5791 7.04043 17.4708 7.29478 17.4708 7.56L17.4708 26.69L10.0194 19.5C9.82589 19.313 9.56394 19.2085 9.29121 19.2094C9.01847 19.2104 8.75729 19.3167 8.56512 19.505C8.37295 19.6933 8.26553 19.9482 8.26649 20.2135C8.26746 20.4789 8.37672 20.733 8.57026 20.92L8.57026 20.89Z" fill="#171717"/>
</svg>
