<svg width="24" height="21" viewBox="0 0 24 21" fill="none" xmlns="http://www.w3.org/2000/svg">
<path d="M14.3295 20.2618L23.9395 10.3334L14.3295 0.405108C14.2427 0.287969 14.1324 0.191362 14.0061 0.12183C13.8798 0.0522968 13.7405 0.0114608 13.5975 0.00208577C13.4546 -0.00728926 13.3113 0.0150161 13.1775 0.0674912C13.0436 0.119966 12.9223 0.201386 12.8217 0.306239C12.7212 0.411092 12.6437 0.53693 12.5945 0.675233C12.5454 0.813536 12.5257 0.961076 12.5369 1.10787C12.5481 1.25465 12.5898 1.39726 12.6592 1.52604C12.7287 1.65482 12.8243 1.76676 12.9395 1.85427L20.1295 9.30566L0.999453 9.30566C0.734236 9.30566 0.479883 9.41395 0.292347 9.60669C0.104811 9.79944 -0.000547289 10.0609 -0.000547286 10.3334C-0.000547283 10.606 0.104811 10.8674 0.292347 11.0602C0.479883 11.2529 0.734236 11.3612 0.999453 11.3612L20.1295 11.3612L12.9395 18.8126C12.7525 19.0061 12.648 19.2681 12.6489 19.5408C12.6498 19.8136 12.7561 20.0747 12.9445 20.2669C13.1328 20.4591 13.3876 20.5665 13.653 20.5655C13.9184 20.5646 14.1725 20.4553 14.3595 20.2618L14.3295 20.2618Z" fill="#171717"/>
</svg>
