<svg width="21" height="25" viewBox="0 0 21 25" fill="none" xmlns="http://www.w3.org/2000/svg">
<path d="M20.4297 10.11L10.5014 0.5L0.573077 10.11C0.455938 10.1968 0.359331 10.3071 0.289798 10.4333C0.220265 10.5596 0.179429 10.6989 0.170054 10.8419C0.160679 10.9849 0.182985 11.1281 0.23546 11.262C0.287935 11.3958 0.369355 11.5172 0.474208 11.6177C0.57906 11.7183 0.704898 11.7958 0.843202 11.8449C0.981505 11.8941 1.12905 11.9137 1.27583 11.9025C1.42262 11.8914 1.56523 11.8497 1.69401 11.7802C1.82279 11.7108 1.93472 11.6152 2.02224 11.5L9.47363 4.31L9.47363 23.44C9.47363 23.7052 9.58191 23.9596 9.77466 24.1471C9.96741 24.3346 10.2288 24.44 10.5014 24.44C10.774 24.44 11.0354 24.3346 11.2282 24.1471C11.4209 23.9596 11.5292 23.7052 11.5292 23.44L11.5292 4.31L18.9806 11.5C19.1741 11.687 19.4361 11.7915 19.7088 11.7906C19.9815 11.7896 20.2427 11.6833 20.4349 11.495C20.6271 11.3067 20.7345 11.0518 20.7335 10.7865C20.7325 10.5211 20.6233 10.267 20.4297 10.08V10.11Z" fill="#0E19D7"/>
</svg>
