<svg width="24" height="17" viewBox="0 0 24 17" fill="none" xmlns="http://www.w3.org/2000/svg">
<path d="M1 0.5C0.723858 0.5 0.5 0.723858 0.5 1C0.5 1.27614 0.723858 1.5 1 1.5H23C23.2761 1.5 23.5 1.27614 23.5 1C23.5 0.723858 23.2761 0.5 23 0.5H1ZM1 8C0.723858 8 0.5 8.22386 0.5 8.5C0.5 8.77614 0.723858 9 1 9H23C23.2761 9 23.5 8.77614 23.5 8.5C23.5 8.22386 23.2761 8 23 8H1ZM1 15.5C0.723858 15.5 0.5 15.7239 0.5 16C0.5 16.2761 0.723858 16.5 1 16.5H23C23.2761 16.5 23.5 16.2761 23.5 16C23.5 15.7239 23.2761 15.5 23 15.5H1Z" stroke="#171717" stroke-linecap="round" stroke-linejoin="round"/>
</svg>
