<?xml version="1.0" encoding="utf-8"?>
<!-- Generator: Adobe Illustrator 17.1.0, SVG Export Plug-In . SVG Version: 6.00 Build 0)  -->
<!DOCTYPE svg PUBLIC "-//W3C//DTD SVG 1.1//EN" "http://www.w3.org/Graphics/SVG/1.1/DTD/svg11.dtd">
<svg version="1.1" id="Слой_1" xmlns="http://www.w3.org/2000/svg" xmlns:xlink="http://www.w3.org/1999/xlink" x="0px" y="0px"
	 viewBox="0 0 247.5 247.5" enable-background="new 0 0 247.5 247.5" xml:space="preserve">
<path fill="#191919" d="M214.2,119.6c0,56.9-46.1,103-103,103s-103-46.1-103-103c0-56.9,46.1-103,103-103S214.2,62.7,214.2,119.6"/>
<path fill="#FFFFFF" d="M69,101.4c-0.5-9.1-1.5-16.7-2.9-23c-0.4-1.8-0.8-3.5-1.3-5v0l0,0c-1.4-4.4-3-7.5-4.8-9.1
	c-1.1-1-2.2-1.5-3.5-1.5c-0.1,0-0.1,0-0.2,0h-8.4v113.6h9c1.1,0,2.2-0.5,3.2-1.5c0.8-0.8,1.5-1.9,2.2-3.3c1.6-3.2,3-7.3,4.1-12.3
	c0.3-1.3,0.6-2.7,0.8-4.1v0c1.6-9.3,2.4-21,2.4-35.2C69.5,113.1,69.3,107,69,101.4 M55.5,151.3h-1.3V87.8h1.6c0.3,0,0.5,0,0.7,0.1
	c1.9,0.5,3.4,2.8,4.4,7.1c1.3,5.6,1.9,13.8,1.9,24.9c0,10-0.6,17.8-1.9,23.3c-0.9,3.9-2.1,6.5-3.6,7.5
	C56.8,151.1,56.2,151.3,55.5,151.3"/>
<path fill="#FFFFFF" d="M117.9,101.4c-1.1-9.1-3-16.7-5.8-23c-0.8-1.8-1.7-3.5-2.6-5v0l0,0c-2.7-4.4-5.8-7.5-9.5-9.1
	c-2.1-1-4.4-1.5-6.9-1.5c-0.1,0-0.2,0-0.4,0H76.2v113.6h17.6c2.2,0,4.3-0.5,6.2-1.5c1.5-0.8,3-1.9,4.4-3.3c3.2-3.2,5.9-7.3,8-12.3
	c0.6-1.3,1.1-2.7,1.6-4.1v0c3.2-9.3,4.8-21,4.8-35.2C118.9,113.1,118.5,107,117.9,101.4 M91.4,151.3h-2.6V87.8h3.1
	c0.5,0,1,0,1.5,0.1c3.8,0.5,6.7,2.8,8.6,7.1c2.5,5.6,3.8,13.8,3.8,24.9c0,10-1.2,17.8-3.7,23.3c-1.7,3.9-4.1,6.5-7,7.5
	C93.9,151.1,92.7,151.3,91.4,151.3"/>
<path fill="#FFFFFF" d="M183.3,101.4c-1.5-9.1-4.4-16.7-8.4-23c-1.2-1.8-2.4-3.5-3.7-5v0l0,0c-3.9-4.4-8.5-7.5-13.8-9.1
	c-3.1-1-6.4-1.5-10-1.5c-0.2,0-0.4,0-0.5,0h-24v113.6h25.6c3.2,0,6.2-0.5,9.1-1.5c2.2-0.8,4.3-1.9,6.4-3.3
	c4.7-3.2,8.5-7.3,11.6-12.3c0.8-1.3,1.6-2.7,2.3-4.1v0c4.6-9.3,6.9-21,6.9-35.2C184.7,113.1,184.2,107,183.3,101.4 M144.8,151.3
	h-3.7V87.8h4.4c0.7,0,1.4,0,2.1,0.1c5.5,0.5,9.7,2.8,12.5,7.1c3.7,5.6,5.5,13.8,5.5,24.9c0,10-1.8,17.8-5.4,23.3
	c-2.5,3.9-5.9,6.5-10.2,7.5C148.4,151.1,146.7,151.3,144.8,151.3"/>
</svg>
