<svg width="36" height="36" viewBox="0 0 36 36" fill="none" xmlns="http://www.w3.org/2000/svg">
<path fill-rule="evenodd" clip-rule="evenodd" d="M35.1276 4.12809C35.3414 3.91456 35.511 3.66102 35.6268 3.38193C35.7426 3.10284 35.8023 2.80367 35.8025 2.50151C35.8027 2.19935 35.7434 1.90011 35.6279 1.62087C35.5125 1.34164 35.3431 1.08789 35.1296 0.874093C34.9161 0.660301 34.6625 0.490661 34.3834 0.374857C34.1043 0.259053 33.8052 0.199354 33.503 0.199168C33.2009 0.198982 32.9016 0.258314 32.6224 0.373775C32.3432 0.489235 32.0894 0.658564 31.8756 0.872093L17.9996 14.7481L4.12761 0.872093C3.69583 0.440321 3.11022 0.197754 2.49961 0.197754C1.88899 0.197754 1.30338 0.440321 0.871605 0.872093C0.439832 1.30387 0.197266 1.88948 0.197266 2.50009C0.197266 3.11071 0.439832 3.69632 0.871605 4.12809L14.7476 18.0001L0.871605 31.8721C0.657813 32.0859 0.488224 32.3397 0.37252 32.619C0.256817 32.8984 0.197266 33.1977 0.197266 33.5001C0.197266 33.8024 0.256817 34.1018 0.37252 34.3812C0.488224 34.6605 0.657813 34.9143 0.871605 35.1281C1.30338 35.5599 1.88899 35.8024 2.49961 35.8024C2.80195 35.8024 3.10134 35.7429 3.38067 35.6272C3.66001 35.5115 3.91381 35.3419 4.12761 35.1281L17.9996 21.2521L31.8756 35.1281C32.3074 35.5593 32.8928 35.8014 33.503 35.801C34.1133 35.8006 34.6984 35.5579 35.1296 35.1261C35.5609 34.6943 35.8029 34.1089 35.8025 33.4987C35.8022 32.8884 35.5594 32.3033 35.1276 31.8721L21.2516 18.0001L35.1276 4.12809Z" fill="#EDEDED"/>
</svg>
