<svg width="42" height="34" viewBox="0 0 42 34" fill="none" xmlns="http://www.w3.org/2000/svg">
<path fill-rule="evenodd" clip-rule="evenodd" d="M17.0466 0.330078H24.952C28.4856 0.330078 31.2848 0.330078 33.4746 0.62157C35.7278 0.922587 37.5523 1.5551 38.9923 2.98017C40.4303 4.40715 41.0686 6.21516 41.3724 8.44802C41.6665 10.6199 41.6665 13.3919 41.6665 16.8936V17.107C41.6665 20.6087 41.6665 23.3827 41.3724 25.5527C41.0686 27.7855 40.4303 29.5935 38.9923 31.0205C37.5523 32.4456 35.7278 33.0781 33.4746 33.3791C31.2829 33.6706 28.4856 33.6706 24.952 33.6706H17.0466C13.5129 33.6706 10.7137 33.6706 8.52395 33.3791C6.27074 33.0781 4.44626 32.4456 3.00628 31.0205C1.56822 29.5935 0.92994 27.7855 0.626179 25.5527C0.332031 23.3808 0.332031 20.6087 0.332031 17.107V16.8936C0.332031 13.3919 0.332031 10.618 0.626179 8.44802C0.92994 6.21516 1.56822 4.40715 3.00628 2.98017C4.44626 1.5551 6.27074 0.922587 8.52395 0.62157C10.7156 0.330078 13.5129 0.330078 17.0466 0.330078ZM8.90654 3.45456C6.97247 3.71176 5.8574 4.19567 5.04224 5.00156C4.23093 5.80745 3.74261 6.91245 3.48307 8.82905C3.21776 10.7876 3.21391 13.3672 3.21391 17.0003C3.21391 20.6335 3.21776 23.215 3.48307 25.1735C3.74261 27.0882 4.23093 28.1932 5.04416 28.9991C5.8574 29.805 6.97247 30.2889 8.90654 30.5461C10.8829 30.809 13.486 30.8128 17.1523 30.8128H24.8424C28.5087 30.8128 31.1137 30.809 33.0901 30.5461C35.0223 30.2889 36.1373 29.805 36.9506 28.9991C37.7638 28.1932 38.2521 27.0882 38.5117 25.1716C38.777 23.2131 38.7808 20.6335 38.7808 17.0003C38.7808 13.3672 38.777 10.7876 38.5117 8.82715C38.2521 6.91245 37.7638 5.80745 36.9506 5.00156C36.1373 4.19567 35.0223 3.71176 33.0882 3.45456C31.1137 3.19165 28.5087 3.18784 24.8424 3.18784H17.1523C13.486 3.18784 10.8848 3.19165 8.90654 3.45456ZM8.35285 8.46516C8.59766 8.17422 8.94904 7.99151 9.32974 7.95721C9.71044 7.92292 10.0893 8.03984 10.383 8.28227L14.5396 11.7097C16.3333 13.19 17.5772 14.215 18.6307 14.8856C19.6477 15.5334 20.3379 15.7524 21.0012 15.7524C21.6645 15.7524 22.3547 15.5353 23.3717 14.8856C24.4233 14.215 25.6691 13.19 27.4628 11.7097L31.6136 8.28036C31.7592 8.16027 31.9271 8.06976 32.108 8.01401C32.2888 7.95826 32.479 7.93835 32.6676 7.95542C32.8562 7.97249 33.0396 8.02621 33.2072 8.11351C33.3749 8.20081 33.5236 8.31998 33.6448 8.46421C33.7659 8.60845 33.8573 8.77492 33.9135 8.95414C33.9698 9.13335 33.9899 9.32179 33.9727 9.50869C33.9554 9.6956 33.9012 9.87732 33.8131 10.0435C33.725 10.2096 33.6048 10.3569 33.4592 10.477L29.2373 13.9635C27.5321 15.3733 26.1517 16.5126 24.9309 17.2899C23.662 18.0996 22.4258 18.6102 21.0012 18.6102C19.5766 18.6102 18.3404 18.0977 17.0696 17.2899C15.8507 16.5126 14.4704 15.3714 12.7651 13.9654L8.54126 10.4789C8.3956 10.3588 8.27527 10.2114 8.18716 10.0451C8.09904 9.87884 8.04486 9.69699 8.02772 9.50996C8.01058 9.32293 8.03081 9.13439 8.08726 8.95511C8.14371 8.77584 8.23526 8.60935 8.35669 8.46516" fill="#EDEDED"/>
</svg>
