<svg width="65" height="71" viewBox="0 0 65 71" fill="none" xmlns="http://www.w3.org/2000/svg">
<path d="M6.76443 62.6713L6.76612 62.6716L17.7243 47.8932C17.6216 47.8604 17.5144 47.8437 17.4066 47.8438V47.3438H17.4063H16C13.4059 47.3438 10.918 48.3743 9.08361 50.2086C7.24927 52.0429 6.21875 54.5309 6.21875 57.125V62.0255C6.21875 62.3354 6.44054 62.6173 6.76443 62.6713ZM47.5975 47.3438V47.8438L58.2812 62.0255H58.7812V62.0236V57.125C58.7812 54.5309 57.7507 52.0429 55.9164 50.2086C54.0821 48.3743 51.5941 47.3438 49 47.3438H47.5993H47.5975ZM23.0634 43.6536L23.0636 43.6537C29.1953 45.6552 35.8047 45.6552 41.9364 43.6537L41.9366 43.6536L45.5084 42.4864C46.1799 42.2677 46.8866 42.1562 47.5934 42.1562H49C52.97 42.1562 56.7773 43.7333 59.5845 46.5405C62.3917 49.3477 63.9688 53.155 63.9688 57.125V62.0255C63.9688 64.8906 61.8942 67.3298 59.0672 67.7896L59.0669 67.7897C41.4721 70.662 23.5279 70.662 5.93306 67.7897L5.93285 67.7896C4.56467 67.5669 3.32034 66.8647 2.42235 65.8087C1.52436 64.7527 1.03127 63.4117 1.03125 62.0255V57.125C1.03125 53.155 2.60831 49.3477 5.4155 46.5405C8.22268 43.7333 12.03 42.1562 16 42.1562H17.4025C18.1113 42.1562 18.8185 42.2712 19.4927 42.4868C19.4932 42.4869 19.4937 42.4871 19.4941 42.4872L23.0634 43.6536ZM15.4688 17.9375C15.4688 15.7009 15.9093 13.4862 16.7652 11.4199C17.6211 9.3536 18.8756 7.47609 20.4571 5.89459C22.0386 4.31309 23.9161 3.05858 25.9824 2.20268C28.0487 1.34678 30.2634 0.90625 32.5 0.90625C34.7366 0.90625 36.9513 1.34678 39.0176 2.20268C41.0839 3.05858 42.9614 4.31309 44.5429 5.89459C46.1244 7.47609 47.3789 9.3536 48.2348 11.4199C49.0907 13.4862 49.5312 15.7009 49.5312 17.9375C49.5312 22.4545 47.7369 26.7864 44.5429 29.9804C41.3489 33.1744 37.017 34.9688 32.5 34.9688C27.983 34.9688 23.6511 33.1744 20.4571 29.9804C17.2631 26.7864 15.4688 22.4545 15.4688 17.9375ZM32.5 6.09375C29.3588 6.09375 26.3463 7.34157 24.1252 9.5627C21.9041 11.7838 20.6562 14.7963 20.6562 17.9375C20.6562 21.0787 21.9041 24.0912 24.1252 26.3123C26.3463 28.5334 29.3588 29.7812 32.5 29.7812C35.6412 29.7812 38.6537 28.5334 40.8748 26.3123C43.0959 24.0912 44.3438 21.0787 44.3438 17.9375C44.3438 14.7963 43.0959 11.7838 40.8748 9.5627C38.6537 7.34157 35.6412 6.09375 32.5 6.09375Z" fill="#EDEDED" stroke="#171717"/>
</svg>
