<svg width="65" height="71" viewBox="0 0 65 71" fill="none" xmlns="http://www.w3.org/2000/svg">
<path fill-rule="evenodd" clip-rule="evenodd" d="M14.9688 17.9375C14.9687 15.6353 15.4222 13.3556 16.3032 11.2286C17.1843 9.10159 18.4756 7.16896 20.1035 5.54103C21.7315 3.91311 23.6641 2.62176 25.7911 1.74074C27.9181 0.859709 30.1978 0.40625 32.5 0.40625C34.8022 0.40625 37.0819 0.859709 39.2089 1.74074C41.3359 2.62176 43.2685 3.91311 44.8965 5.54103C46.5244 7.16896 47.8157 9.10159 48.6968 11.2286C49.5778 13.3556 50.0313 15.6353 50.0312 17.9375C50.0312 22.5871 48.1842 27.0462 44.8965 30.334C41.6087 33.6217 37.1496 35.4688 32.5 35.4688C27.8504 35.4688 23.3913 33.6217 20.1035 30.334C16.8158 27.0462 14.9688 22.5871 14.9688 17.9375ZM32.5 6.59375C29.4915 6.59375 26.6061 7.78889 24.4788 9.91626C22.3514 12.0436 21.1563 14.929 21.1562 17.9375C21.1563 20.946 22.3514 23.8314 24.4788 25.9587C26.6061 28.0861 29.4915 29.2812 32.5 29.2812C35.5085 29.2812 38.3939 28.0861 40.5212 25.9587C42.6486 23.8314 43.8438 20.946 43.8438 17.9375C43.8438 14.929 42.6486 12.0436 40.5212 9.91626C38.3939 7.78889 35.5085 6.59375 32.5 6.59375ZM16 47.8438C13.5385 47.8438 11.1777 48.8216 9.43717 50.5622C7.69659 52.3027 6.71875 54.6635 6.71875 57.125V62.0255C6.71875 62.0997 6.77238 62.1658 6.84663 62.1781C23.8375 64.9501 41.1666 64.9501 58.1534 62.1781C58.1894 62.1722 58.2222 62.1535 58.2456 62.1255C58.2691 62.0975 58.2817 62.062 58.2812 62.0255V57.125C58.2812 54.6635 57.3034 52.3027 55.5628 50.5622C53.8223 48.8216 51.4615 47.8438 49 47.8438H47.5975C47.4869 47.8429 47.3769 47.8596 47.2716 47.8932L43.7035 49.0606C36.4236 51.4374 28.5764 51.4374 21.2965 49.0606L17.7243 47.8932C17.6216 47.8604 17.5144 47.8437 17.4066 47.8438H16ZM0.53125 57.125C0.53125 53.0224 2.16099 49.0879 5.06194 46.1869C7.9629 43.286 11.8974 41.6563 16 41.6562H17.4025C18.1656 41.6562 18.9246 41.78 19.6465 42.011L23.2188 43.1784C29.2497 45.147 35.7503 45.147 41.7812 43.1784L45.3535 42.011C46.0754 41.7759 46.8344 41.6562 47.5934 41.6562H49C53.1026 41.6562 57.0371 43.286 59.9381 46.1869C62.839 49.0879 64.4688 53.0224 64.4688 57.125V62.0255C64.4688 65.1357 62.2165 67.784 59.1475 68.2831C41.4993 71.1642 23.5007 71.1642 5.8525 68.2831C4.36719 68.0413 3.01632 67.279 2.04145 66.1326C1.06658 64.9862 0.531273 63.5304 0.53125 62.0255V57.125Z" fill="#EDEDED"/>
</svg>
