<svg width="70" height="70" viewBox="0 0 70 70" fill="none" xmlns="http://www.w3.org/2000/svg">
<path fill-rule="evenodd" clip-rule="evenodd" d="M0 0H70V70H0V0ZM11.9389 12.3687V30.4182H23.4932V27.2719H15.7551V12.3687H11.9389ZM24.2616 30.4182H28.351L29.6899 26.3025H36.207L37.5433 30.4182H41.6326L35.4105 12.3687H30.4926L24.2616 30.4182ZM35.2398 23.3235L33.0221 16.4932H32.881L30.659 23.3235H35.2398ZM57.6613 30.4182V12.3687H53.8628V23.7201H53.7041L45.9133 12.3687H42.5642V30.4182H46.3804V19.0579H46.5125L54.3652 30.4182H57.6613ZM10.5332 57.5273H16.9316C18.7648 57.5273 20.3395 57.166 21.6556 56.4433C22.9776 55.7206 23.991 54.6835 24.6961 53.3322C25.4071 51.9808 25.7626 50.3651 25.7626 48.4849C25.7626 46.6106 25.4071 45.0008 24.6961 43.6552C23.991 42.3097 22.9834 41.2785 21.6732 40.5617C20.3629 39.8391 18.8001 39.4778 16.9846 39.4778H10.5332V57.5273ZM16.773 54.2576H14.3494V42.7475H16.7818C17.91 42.7475 18.8588 42.9472 19.6285 43.3467C20.3981 43.7464 20.977 44.3691 21.3648 45.2152C21.7584 46.0612 21.9552 47.1512 21.9552 48.4849C21.9552 49.8304 21.7584 50.9291 21.3648 51.7811C20.977 52.6272 20.3952 53.2529 19.6197 53.6582C18.85 54.0579 17.901 54.2576 16.773 54.2576ZM25.3522 57.5273H29.4416L30.7805 53.4116H37.2976L38.6339 57.5273H42.7233L36.5011 39.4778H31.5832L25.3522 57.5273ZM36.3304 50.4326L34.1127 43.6023H33.9716L31.7496 50.4326H36.3304ZM58.2739 53.5261C59.0201 52.1453 59.3931 50.4708 59.3931 48.5025C59.3931 46.5343 59.0201 44.8597 58.2739 43.479C57.5335 42.0982 56.523 41.0465 55.2421 40.3239C53.9671 39.5952 52.5335 39.231 50.9412 39.231C49.3372 39.231 47.8977 39.5952 46.6227 40.3239C45.3477 41.0465 44.34 42.0982 43.5997 43.479C42.8594 44.8597 42.4892 46.5343 42.4892 48.5025C42.4892 50.465 42.8594 52.1366 43.5997 53.5173C44.34 54.898 45.3477 55.9527 46.6227 56.6812C47.8977 57.4099 49.3372 57.7741 50.9412 57.7741C52.5335 57.7741 53.9671 57.4128 55.2421 56.6901C56.523 55.9615 57.5335 54.9069 58.2739 53.5261ZM54.9513 45.2768C55.3331 46.1523 55.5241 47.2275 55.5241 48.5025C55.5241 49.7776 55.3331 50.8528 54.9513 51.7281C54.5752 52.6037 54.0434 53.2676 53.356 53.72C52.6686 54.1724 51.8636 54.3986 50.9412 54.3986C50.0187 54.3986 49.2138 54.1724 48.5263 53.72C47.8389 53.2676 47.3042 52.6037 46.9223 51.7281C46.5463 50.8528 46.3583 49.7776 46.3583 48.5025C46.3583 47.2275 46.5463 46.1523 46.9223 45.2768C47.3042 44.4014 47.8389 43.7375 48.5263 43.2851C49.2138 42.8327 50.0187 42.6065 50.9412 42.6065C51.8636 42.6065 52.6686 42.8327 53.356 43.2851C54.0434 43.7375 54.5752 44.4014 54.9513 45.2768Z" fill="#AAAFFF"/>
</svg>
