<svg width="81" height="76" viewBox="0 0 81 76" fill="none" xmlns="http://www.w3.org/2000/svg">
<mask id="mask0_69_1245" style="mask-type:luminance" maskUnits="userSpaceOnUse" x="4" y="47" width="31" height="29">
<path d="M5.48328 53.1326C6.02107 55.181 5.81022 57.3541 4.88867 59.2609L33.3996 75.3761C33.6256 75.0779 33.87 74.7942 34.1315 74.5265L18.7072 48.1492C16.5813 48.6359 14.3507 48.322 12.4416 47.2676L5.48328 53.1326Z" fill="white"/>
</mask>
<g mask="url(#mask0_69_1245)">
<path d="M34.1315 47.2676H4.88867V75.3761H34.1315V47.2676Z" fill="#AAAFFF"/>
</g>
<mask id="mask1_69_1245" style="mask-type:luminance" maskUnits="userSpaceOnUse" x="0" y="19" width="11" height="31">
<path d="M0.809232 19.295C0.536377 19.295 0.266882 19.2805 0 19.2566V47.0583C1.45993 47.6094 2.75014 48.5331 3.74233 49.7375L9.60329 44.7974C8.36498 43.145 7.74091 41.1129 7.83832 39.0503C7.93573 36.9877 8.74854 35.0234 10.1371 33.495L1.80062 19.2383C1.47146 19.2755 1.14049 19.2944 0.809232 19.295Z" fill="white"/>
</mask>
<g mask="url(#mask1_69_1245)">
<path d="M10.1371 19.2383H0V49.7375H10.1371V19.2383Z" fill="#AAAFFF"/>
</g>
<mask id="mask2_69_1245" style="mask-type:luminance" maskUnits="userSpaceOnUse" x="70" y="19" width="11" height="32">
<path d="M70.8633 33.495C72.2516 35.0235 73.0642 36.9877 73.1616 39.0503C73.259 41.1128 72.6351 43.1449 71.397 44.7974L77.6578 50.0742C78.5868 49.0853 79.7305 48.3229 81.0007 47.8458V19.9452C80.3536 19.8277 79.7217 19.6384 79.1165 19.3809L70.8633 33.495Z" fill="white"/>
</mask>
<g mask="url(#mask2_69_1245)">
<path d="M81.0007 19.3809H70.8633V50.0742H81.0007V19.3809Z" fill="#AAAFFF"/>
</g>
<mask id="mask3_69_1245" style="mask-type:luminance" maskUnits="userSpaceOnUse" x="48" y="13" width="29" height="21">
<path d="M49.3875 20.6655C49.3972 20.838 49.4035 21.0108 49.4035 21.1855C49.4049 22.6469 49.0441 24.0859 48.3535 25.3739L57.8157 33.349C59.0724 32.0185 60.7096 31.1089 62.5032 30.7446C64.2968 30.3804 66.1591 30.5794 67.8352 31.3143L76.0578 17.252C75.1511 16.287 74.473 15.1303 74.0739 13.8677L49.3875 20.6655Z" fill="white"/>
</mask>
<g mask="url(#mask3_69_1245)">
<path d="M76.0578 13.8677H48.3535V33.349H76.0578V13.8677Z" fill="#AAAFFF"/>
</g>
<mask id="mask4_69_1245" style="mask-type:luminance" maskUnits="userSpaceOnUse" x="42" y="0" width="32" height="18">
<path d="M42.3574 4.29251V12.4789C43.6404 12.7556 44.8466 13.3116 45.8904 14.1073C46.9341 14.903 47.7897 15.9189 48.3964 17.0827L73.7182 10.1102C73.7711 9.67701 73.856 9.24834 73.972 8.82765L48.2259 0C47.6035 1.08714 46.7594 2.03116 45.7484 2.7707C44.7373 3.51024 43.582 4.02874 42.3574 4.29251Z" fill="white"/>
</mask>
<g mask="url(#mask4_69_1245)">
<path d="M73.972 0H42.3574V17.0827H73.972V0Z" fill="#AAAFFF"/>
</g>
<mask id="mask5_69_1245" style="mask-type:luminance" maskUnits="userSpaceOnUse" x="46" y="47" width="30" height="29">
<path d="M64.2719 48.3728C63.6073 48.3722 62.9449 48.2972 62.297 48.1492L46.873 74.5265C47.0365 74.6938 47.1932 74.8671 47.343 75.0465L75.6997 59.0186C75.0644 57.1625 75.0689 55.1472 75.7124 53.2939L68.5622 47.2676C67.249 47.9941 65.7726 48.3744 64.2719 48.3728Z" fill="white"/>
</mask>
<g mask="url(#mask5_69_1245)">
<path d="M75.7124 47.2676H46.873V75.0465H75.7124V47.2676Z" fill="#AAAFFF"/>
</g>
<mask id="mask6_69_1245" style="mask-type:luminance" maskUnits="userSpaceOnUse" x="22" y="28" width="17" height="45">
<path d="M25.1428 36.561C25.7593 38.3383 25.7959 40.2653 25.2473 42.0647C24.6987 43.8641 23.5931 45.4429 22.0898 46.5738L37.226 72.4595C37.6853 72.2767 38.1591 72.1328 38.6425 72.0295V29.8916C37.3325 29.6111 36.103 29.0373 35.0465 28.2134L25.1428 36.561Z" fill="white"/>
</mask>
<g mask="url(#mask6_69_1245)">
<path d="M38.6425 28.2134H22.0898V72.4595H38.6425V28.2134Z" fill="#AAAFFF"/>
</g>
<mask id="mask7_69_1245" style="mask-type:luminance" maskUnits="userSpaceOnUse" x="42" y="28" width="17" height="45">
<path d="M42.3574 29.8906V72.0285C42.8408 72.1318 43.3147 72.2757 43.774 72.4585L58.9101 46.5728C57.4067 45.442 56.3011 43.8632 55.7525 42.0638C55.2039 40.2643 55.2407 38.3372 55.8576 36.56L45.9538 28.2124C44.8972 29.0364 43.6676 29.6102 42.3574 29.8906Z" fill="white"/>
</mask>
<g mask="url(#mask7_69_1245)">
<path d="M58.9101 28.2124H42.3574V72.4585H58.9101V28.2124Z" fill="#AAAFFF"/>
</g>
<mask id="mask8_69_1245" style="mask-type:luminance" maskUnits="userSpaceOnUse" x="5" y="14" width="28" height="20">
<path d="M5.39258 18.0196L13.1658 31.3133C14.8419 30.5784 16.7042 30.3794 18.4978 30.7436C20.2913 31.1078 21.9285 32.0174 23.1852 33.3479L32.6474 25.3728C31.957 24.0848 31.5964 22.6458 31.5978 21.1845C31.5978 21.0098 31.6038 20.8369 31.6142 20.6645L8.76687 14.3735C8.00808 15.8825 6.83839 17.1464 5.39258 18.0196Z" fill="white"/>
</mask>
<g mask="url(#mask8_69_1245)">
<path d="M32.6474 14.3735H5.39258V33.3479H32.6474V14.3735Z" fill="#AAAFFF"/>
</g>
<mask id="mask9_69_1245" style="mask-type:luminance" maskUnits="userSpaceOnUse" x="9" y="1" width="30" height="17">
<path d="M9.59961 8.9954C9.67296 9.45737 9.7099 9.9244 9.7101 10.3922C9.7101 10.5209 9.70599 10.6486 9.70039 10.7762L32.603 17.0825C33.2095 15.9187 34.065 14.9028 35.1086 14.1071C36.1523 13.3114 37.3584 12.7554 38.6413 12.4787V4.2923C36.588 3.85062 34.7566 2.69835 33.4697 1.03857L9.59961 8.9954Z" fill="white"/>
</mask>
<g mask="url(#mask9_69_1245)">
<path d="M38.6413 1.03857H9.59961V17.0825H38.6413V1.03857Z" fill="#AAAFFF"/>
</g>
</svg>
