<svg width="84" height="70" viewBox="0 0 84 70" fill="none" xmlns="http://www.w3.org/2000/svg">
<path d="M8.00482 55.6042C-1.73338 45.866 -1.73338 30.025 8.00482 20.2868L26.5926 1.69905C28.858 -0.566351 32.5338 -0.566351 34.7992 1.69905C37.0646 3.96446 37.0646 7.64027 34.7992 9.90567L16.2114 28.4934C11.0007 33.7042 11.0007 42.1835 16.2114 47.3942C21.4222 52.605 29.9015 52.605 35.1122 47.3942L53.7 28.8065C55.9654 26.5411 59.6412 26.5411 61.9066 28.8065C64.172 31.0719 64.172 34.7477 61.9066 37.0131L43.3189 55.6008C33.5874 65.339 17.743 65.339 8.00482 55.6042Z" fill="#3B7FFF"/>
<path d="M49.5291 68.2982C47.2637 66.0328 47.2637 62.357 49.5291 60.0916L68.1169 41.5038C73.3276 36.2931 73.3276 27.8138 68.1169 22.603C62.9061 17.3923 54.4268 17.3923 49.2161 22.603L30.6283 41.1908C28.3629 43.4562 24.6871 43.4562 22.4217 41.1908C20.1563 38.9254 20.1563 35.2496 22.4217 32.9842L41.0095 14.3964C50.7477 4.65822 66.5886 4.65822 76.3269 14.3964C86.0651 24.1346 86.0651 39.9756 76.3269 49.7138L57.7391 68.3016C55.4703 70.567 51.7945 70.567 49.5291 68.2982Z" fill="#8AB3FF"/>
</svg>
